# xmcd CD database file
#
# Track frame offsets:
#	150
#	27068
#	50481
#	76764
#	95001
#	117118
#	134610
#	152426
#	226748
#	238634
#	251663
#	266588
#	280846
#
# Disc length: 4008 seconds
#
# Revision: 0
# Processed by: cddbd v1.5.2PL0 Copyright (c) Steve Scherf et al.
# Submitted via: CDex 1.70beta2
#
DISCID=a10fa60d
DTITLE=Art Farmer -  Brass Shout - The Aztec Suite
DYEAR=2008
DGENRE=Jazz
TTITLE0=Art Farmer - Nica's Dream
TTITLE1=Art Farmer - Autumn Leaves
TTITLE2=Art Farmer - Moanin'
TTITLE3=Art Farmer - April In Paris
TTITLE4=Art Farmer - Five Spot After Dark
TTITLE5=Art Farmer - Stella By Starlight
TTITLE6=Art Farmer - Minor Vamp
TTITLE7=Art Farmer - The Aztec Suite
TTITLE8=Art Farmer - Heat Wave
TTITLE9=Art Farmer - Delirio
TTITLE10=Art Farmer - Woody 'N You
TTITLE11=Art Farmer - Drume Negrita
TTITLE12=Art Farmer - Alone Together
EXTD=YEAR: 2008
EXTT0=
EXTT1=
EXTT2=
EXTT3=
EXTT4=
EXTT5=
EXTT6=
EXTT7=
EXTT8=
EXTT9=
EXTT10=
EXTT11=
EXTT12=
PLAYORDER=
